<svg version="1.1" id="Layer_1" xmlns="http://www.w3.org/2000/svg" xmlns:xlink="http://www.w3.org/1999/xlink" x="0px" y="0px"
	 width="100%" viewBox="0 0 1024 784" enable-background="new 0 0 1024 784" xml:space="preserve">

	<defs>
		<radialGradient id="goldgradient">
			<stop offset="15%" stop-color="#D2B379" />
			<stop offset="95%" stop-color="#A17A46" />
		</radialGradient>
  	</defs>
<path fill="url('#goldgradient')" opacity="1.000000" stroke="none" 
	d="
M124.037460,738.649658 
	C120.720863,746.699036 116.782967,749.482849 109.255890,749.404114 
	C103.005730,749.338745 98.163193,745.947327 95.861641,740.023682 
	C93.736534,734.554016 95.599800,727.399597 100.122490,723.663086 
	C104.606590,719.958557 112.352737,719.199219 117.457527,722.664001 
	C120.448792,724.694275 122.696312,724.425659 125.642433,722.929077 
	C170.501984,700.141113 215.403885,677.436584 260.292572,654.705933 
	C261.902954,653.890442 263.479492,653.008240 265.477539,651.940308 
	C260.896881,644.611633 256.231171,637.773193 252.222748,630.569031 
	C247.614685,622.287170 243.448349,613.748047 239.383850,605.181335 
	C237.926331,602.109375 236.036392,601.105225 232.773056,601.311462 
	C214.661575,602.455994 196.540543,603.448608 178.424149,604.516479 
	C162.969971,605.427429 147.518311,606.381226 132.064194,607.292969 
	C125.914047,607.655823 119.763222,608.065552 113.606689,608.232910 
	C111.104393,608.300903 109.763687,609.452393 108.444427,611.411743 
	C104.565804,617.172180 98.932663,619.307251 92.959564,617.580322 
	C86.842003,615.811523 82.794418,610.595764 82.693230,604.350708 
	C82.595932,598.346252 86.366882,592.957581 92.085533,590.929138 
	C97.797585,588.903015 104.006645,590.698364 107.991989,596.109619 
	C109.791771,598.553406 111.826752,598.912720 114.438744,598.768188 
	C134.886246,597.636658 155.336548,596.555847 175.784149,595.425781 
	C191.909668,594.534607 208.031189,593.570190 224.157944,592.702515 
	C226.981110,592.550537 229.794022,592.540039 232.797913,591.416626 
	C232.728699,586.494507 230.692169,582.046143 229.299088,577.577881 
	C224.686981,562.784607 221.066849,547.800232 218.987320,532.445129 
	C218.920319,531.950439 218.810486,531.460999 218.756119,530.965149 
	C217.619263,520.601562 217.641220,520.494446 207.807693,518.571106 
	C159.337051,509.090790 110.848969,499.699677 62.389668,490.162140 
	C59.506607,489.594727 57.592106,489.849640 55.356491,492.018066 
	C50.612289,496.619690 44.815430,497.201172 39.238235,494.324127 
	C34.215069,491.732849 31.219084,486.280151 31.750544,480.696594 
	C32.312370,474.794006 36.485958,470.005432 42.543102,468.313690 
	C48.904816,466.536896 55.962994,470.000092 58.693462,476.859833 
	C59.810284,479.665588 61.345837,480.476990 64.050484,481.004089 
	C108.634583,489.693207 153.195923,498.499054 197.763916,507.270905 
	C203.311096,508.362701 208.863495,509.428955 214.420639,510.468811 
	C216.578537,510.872650 218.753860,510.803284 218.611115,507.853058 
	C217.930115,493.776581 222.596771,480.285889 223.054611,466.293121 
	C223.218033,461.298737 221.754303,459.172943 217.542267,457.349091 
	C196.141571,448.082458 174.830612,438.608490 153.493103,429.196106 
	C123.468559,415.951782 93.428246,402.742737 63.455662,389.381836 
	C60.296970,387.973755 57.995968,387.782623 54.803406,389.703461 
	C46.657211,394.604675 36.839817,391.521149 32.643440,383.308044 
	C28.581320,375.357666 32.088654,365.417816 40.224926,361.822083 
	C48.499657,358.165161 58.000229,361.976898 61.411057,370.326324 
	C61.662453,370.941742 62.156967,371.614136 62.068985,372.188049 
	C61.011154,379.088470 66.122597,380.571655 70.883377,382.663361 
	C120.446236,404.439026 169.979630,426.281769 219.511658,448.127502 
	C225.111023,450.597046 225.970032,449.885162 227.623672,443.940643 
	C234.307327,419.914154 240.776688,395.789307 254.029800,374.229584 
	C259.435120,365.436371 259.372192,365.320587 251.082306,359.451294 
	C192.607727,318.051056 134.110886,276.682251 75.648026,235.265503 
	C73.086708,233.450989 71.033173,232.487411 67.565109,233.909698 
	C59.184917,237.346527 50.266190,232.370728 48.070923,223.697769 
	C46.080341,215.833450 51.432564,207.321686 59.292431,205.851929 
	C68.509529,204.128403 76.852486,210.120239 77.081131,219.387909 
	C77.191071,223.843994 78.894722,226.289383 82.304672,228.652100 
	C97.095825,238.900742 111.737534,249.364944 126.447426,259.731110 
	C127.771019,260.663879 129.193924,261.455688 131.072830,262.625610 
	C131.884399,257.353790 129.517929,253.050903 129.557007,248.507156 
	C129.624054,240.714951 129.523987,233.009506 131.266724,225.251648 
	C135.816742,204.997101 142.573410,185.565292 152.050354,167.141541 
	C159.452866,152.750595 169.358093,140.426468 182.967133,131.163147 
	C204.032654,116.824402 225.917923,104.369743 251.110138,98.792366 
	C252.246414,98.540810 253.439911,98.422050 254.287521,97.019684 
	C253.644089,93.332481 251.028610,90.397324 249.123138,87.172661 
	C243.953171,78.423431 238.479980,69.853790 233.269531,61.127834 
	C231.686020,58.475914 229.833191,57.194134 226.589996,56.863388 
	C217.937057,55.980957 212.986221,48.948841 214.628098,40.589844 
	C216.107147,33.059902 223.774887,28.606005 231.502243,30.788292 
	C238.928604,32.885571 242.727386,40.936176 239.706009,48.814533 
	C238.803055,51.169041 239.147919,52.842667 240.378052,54.833828 
	C247.820786,66.880905 255.247391,78.939499 262.503357,91.099281 
	C264.172058,93.895767 266.146362,95.055283 269.368622,94.831146 
	C276.509674,94.334427 283.676392,94.199310 290.814789,93.674210 
	C307.066254,92.478767 322.457520,96.295807 337.927704,100.702843 
	C364.774719,108.350830 388.469086,121.322990 407.829468,141.400238 
	C419.117004,153.105698 430.655396,165.000977 437.358032,180.138824 
	C445.844604,199.305634 452.142273,219.090576 454.627991,240.197678 
	C456.914520,259.613617 450.408630,277.546082 447.804932,296.119995 
	C446.246735,307.235596 441.233521,317.286438 436.402527,327.403412 
	C425.089142,351.095764 411.495972,373.452728 396.145782,394.606323 
	C385.273193,409.589417 375.468262,425.195160 365.229004,440.558716 
	C353.654083,457.926422 346.754700,476.965515 342.297638,497.128571 
	C337.559998,518.560608 333.067780,540.055969 329.858429,561.756958 
	C327.416565,578.268311 326.996002,594.900757 332.639160,611.105774 
	C333.495209,613.563965 333.477234,616.332947 333.814301,618.964478 
	C335.561066,632.601868 344.155548,642.548279 352.288696,652.635010 
	C355.032410,656.037781 356.642700,659.109070 353.827179,662.821289 
	C350.961029,666.600281 347.204559,665.923706 343.489410,663.992126 
	C341.259552,662.832825 339.125061,661.559814 337.583557,659.486389 
	C331.734131,651.618774 325.477173,644.053467 321.966858,634.662720 
	C318.428345,625.196472 311.902222,617.175049 308.928131,607.339111 
	C303.208496,588.422913 295.060303,570.140564 292.758484,550.335754 
	C289.950958,526.179871 291.850494,502.220428 297.022675,478.422760 
	C302.394836,453.705048 310.757172,430.056824 321.932831,407.474487 
	C327.288940,396.651642 333.601807,386.295288 341.922791,377.173004 
	C348.292877,370.189453 353.082306,361.802490 357.458405,353.373047 
	C366.362122,336.222260 375.407715,318.990814 378.830139,299.761566 
	C381.326599,285.734955 386.119324,272.002045 385.690338,257.554596 
	C385.181458,240.417328 383.454163,223.372711 379.322754,206.680099 
	C377.291687,198.473755 371.767700,191.888031 368.336212,184.338699 
	C365.975555,179.145279 362.109192,175.381332 358.308411,171.486923 
	C355.037842,168.135742 352.082642,164.559570 349.288025,160.818207 
	C346.557495,157.162582 343.075867,154.413559 339.035187,152.234512 
	C327.179199,145.840851 315.779724,138.457321 302.256866,135.804077 
	C296.732635,134.720184 291.208313,133.636826 285.450592,133.312637 
	C289.402039,134.443390 293.367401,135.527924 297.301849,136.715012 
	C304.332275,138.836197 311.153412,141.350906 317.276764,145.620712 
	C322.732819,149.425201 328.472504,152.825211 334.112732,156.362625 
	C337.979034,158.787476 341.338104,161.722305 343.685150,165.682114 
	C348.942627,174.552368 354.281769,183.376923 359.377625,192.339523 
	C365.606171,203.294327 366.579681,215.711761 368.929749,227.753876 
	C372.137970,244.193375 374.068604,260.765686 371.236511,277.358551 
	C366.355438,305.956299 360.410370,334.575623 345.361084,359.702911 
	C337.378448,373.031219 328.456543,385.937378 320.370392,399.286835 
	C304.545837,425.411652 295.597382,454.067352 290.381165,483.939789 
	C287.208649,502.108459 284.988525,520.417542 284.259338,538.891785 
	C283.533539,557.279663 288.722565,574.405579 295.003082,591.295227 
	C299.761261,604.091125 305.503204,616.479919 311.217407,628.878052 
	C315.478363,638.123108 322.700165,645.141663 328.662659,653.115112 
	C340.619659,669.104736 355.197327,681.995300 372.942108,691.233521 
	C373.675354,691.615234 374.432159,691.951782 375.207001,692.323242 
	C376.295471,691.155396 375.106232,690.394531 374.712708,689.767212 
	C363.431061,671.784302 357.671997,652.111572 355.378113,631.066772 
	C353.108765,610.247192 350.688721,589.427917 349.861664,568.523987 
	C349.270294,553.576538 352.320465,538.829895 354.770721,524.031982 
	C358.543701,501.245789 367.868073,480.471375 375.773041,459.148987 
	C376.739563,456.542023 378.277985,454.015015 380.047150,451.857483 
	C406.449707,419.660095 437.091217,392.241608 472.606812,370.406433 
	C476.989502,367.711914 481.679138,365.432587 486.430328,363.448883 
	C490.036377,361.943298 491.068420,359.623657 490.622528,356.031311 
	C488.493042,338.874695 486.390076,321.714569 484.346802,304.547455 
	C482.087677,285.566925 479.922882,266.575104 477.682068,247.592346 
	C474.563873,221.177063 471.376007,194.769943 468.287415,168.351212 
	C465.352295,143.244766 462.526703,118.125519 459.612335,93.016617 
	C458.270294,81.453911 456.770142,69.909309 455.472900,58.341789 
	C455.069885,54.747879 453.517303,52.550346 450.275238,50.615959 
	C443.558716,46.608566 442.103729,37.917416 446.433380,31.322292 
	C450.613159,24.955492 459.402008,23.179747 465.889679,27.391302 
	C472.248627,31.519299 475.069855,41.586334 469.557739,46.514900 
	C462.463135,52.858425 464.908661,59.760178 465.643616,66.644394 
	C467.990662,88.628632 470.725739,110.571892 473.372345,132.523575 
	C475.740295,152.164001 478.264648,171.785767 480.584290,191.431793 
	C483.586395,216.858063 486.398956,242.306702 489.396515,267.733551 
	C491.770081,287.867096 494.323914,307.979340 496.747375,328.107117 
	C497.681366,335.863922 498.505280,343.634491 499.314667,351.405518 
	C499.522095,353.397064 499.555695,355.393433 501.238922,357.414825 
	C510.840088,354.751526 520.480225,351.660645 529.685913,347.466217 
	C538.165222,343.602692 546.344299,339.084442 554.708252,334.961426 
	C557.751892,333.461060 558.985291,331.316956 559.007019,327.857239 
	C559.101318,312.864288 559.508240,297.873657 559.670715,282.880768 
	C560.160217,237.724670 560.569336,192.567703 561.057556,147.411591 
	C561.149414,138.917969 561.356506,130.422226 561.721375,121.936516 
	C561.875732,118.346397 560.966003,115.841454 557.939880,113.451958 
	C551.667114,108.498787 550.822815,99.677895 555.387939,93.212379 
	C559.655884,87.167755 567.903076,85.172409 574.528320,88.729225 
	C579.244446,91.261101 582.012573,95.135223 582.371582,100.659409 
	C582.777649,106.907501 580.627869,112.071152 575.121399,114.908096 
	C571.595886,116.724426 571.101257,119.040359 570.972412,122.452301 
	C569.921936,150.271454 570.763184,178.113358 569.972412,205.927444 
	C569.039368,238.749557 569.497009,271.579224 568.895020,304.399994 
	C568.762207,311.643341 567.721375,318.896912 568.987793,326.766418 
	C577.312683,321.484406 583.663452,314.813965 590.991150,309.398529 
	C605.653442,298.562592 613.929993,283.405457 619.806763,266.562622 
	C622.990662,257.437500 626.057922,248.309052 628.142578,238.861832 
	C630.300720,229.081970 635.115356,221.997528 646.159485,221.112076 
	C648.434631,220.929657 650.648743,219.985916 652.804382,219.416000 
	C653.429016,217.622971 652.177063,216.722198 651.364014,215.796661 
	C639.085266,201.818527 633.952698,184.976807 631.763306,166.969254 
	C630.477051,156.390152 629.568298,145.791138 629.603943,135.104935 
	C629.628052,127.868019 630.818237,120.845177 632.745422,113.967537 
	C634.713257,106.944916 638.743713,105.738861 644.702148,109.833946 
	C646.476685,111.053543 648.253174,112.467667 650.248718,113.135300 
	C661.297180,116.831734 670.756104,123.484100 680.443359,129.575729 
	C689.225281,135.098053 694.494690,144.144547 700.137634,152.550140 
	C707.736938,163.869843 712.845459,176.239761 714.444702,189.959137 
	C714.808533,193.080338 715.094543,196.563751 718.272034,199.295441 
	C718.615479,196.395782 718.746033,193.979904 718.343811,191.501831 
	C716.993103,183.180908 721.421143,178.761841 729.816040,178.927780 
	C750.262817,179.331894 769.372803,185.773529 788.686218,191.357605 
	C793.556763,192.765823 797.727173,195.624359 801.774902,198.535690 
	C813.522888,206.985443 825.837402,214.609940 836.796265,224.207840 
	C851.410583,237.007217 862.692566,251.818939 867.928101,270.765198 
	C870.580200,280.362366 876.176453,288.136230 882.888306,295.206818 
	C889.403320,302.070038 890.161011,306.953522 886.140015,315.515808 
	C884.551880,318.897552 882.481995,319.604187 878.930481,318.639862 
	C875.096313,317.598907 872.128662,314.786652 868.204529,313.361298 
	C867.057007,317.026581 869.194763,319.045715 870.664368,321.026428 
	C872.949646,324.106384 873.368042,327.055450 871.184875,330.209290 
	C865.386963,338.584808 859.232117,346.783142 851.330505,353.206757 
	C845.330566,358.084381 837.397095,358.719727 829.986389,359.088409 
	C812.825684,359.942139 796.089172,364.127045 778.991272,365.134308 
	C764.703613,365.975983 750.374878,366.022858 736.142761,364.081573 
	C724.781189,362.531799 713.463684,360.802185 702.211670,358.428101 
	C677.489746,353.212006 662.599854,337.873688 655.124756,314.450073 
	C651.572632,303.319153 648.899475,291.998657 648.762817,279.528320 
	C645.365112,285.624939 645.694458,291.952362 644.441956,297.847107 
	C642.749634,305.811066 639.959412,313.099823 635.202881,319.739471 
	C631.910950,324.334717 629.048828,329.241760 626.065613,334.053467 
	C619.605591,344.472992 611.044128,352.816437 600.329529,358.626312 
	C583.234314,367.895874 566.475769,377.910095 547.501831,383.250641 
	C535.817932,386.539215 524.192017,390.094513 512.708618,394.022766 
	C482.781708,404.260162 455.830139,419.321381 431.907288,440.506134 
	C414.785858,455.667908 403.447113,474.149323 393.565430,494.057526 
	C381.306610,518.754944 376.731018,545.057678 377.287628,572.435608 
	C377.703766,592.903198 378.119263,613.375061 382.316162,633.515747 
	C386.459412,653.399109 394.923035,671.142273 407.520050,687.248413 
	C420.075043,703.300781 437.496887,711.484985 455.171021,719.621704 
	C458.647736,721.222290 462.137421,722.806274 465.687744,724.232056 
	C469.378479,725.714172 470.861603,728.464111 470.080627,732.156494 
	C469.307159,735.813171 466.276642,736.797302 462.930389,737.295044 
	C455.946747,738.334045 449.006378,738.254395 442.208069,736.353882 
	C434.770111,734.274536 427.260681,736.886292 419.844727,735.709900 
	C403.530792,733.121948 387.651031,729.052490 372.347931,722.655334 
	C360.835144,717.842651 348.784912,714.070251 338.483398,706.902283 
	C332.848938,702.981812 327.087830,699.517639 320.972321,696.493347 
	C318.348633,695.195862 316.454590,695.356079 314.330994,697.493042 
	C296.122498,715.816711 277.847870,734.074768 259.549957,752.309204 
	C257.962250,753.891418 257.693115,755.404297 258.023621,757.640015 
	C259.066833,764.696960 254.548981,770.652893 248.061249,771.298828 
	C241.086136,771.993286 235.315323,767.443726 234.740448,760.796997 
	C234.155792,754.037231 239.287796,748.069824 246.404892,747.912903 
	C249.677078,747.840637 252.068527,746.943359 254.338531,744.663452 
	C271.035675,727.893372 287.815765,711.205994 304.547150,694.469971 
	C305.699463,693.317322 307.069977,692.249756 307.341797,689.978943 
	C299.791748,685.754089 292.917480,680.300720 286.651917,674.118591 
	C282.987946,670.503357 279.387268,666.782776 276.141479,662.797363 
	C273.343048,659.361328 270.785767,659.640930 267.148193,661.496582 
	C231.087631,679.891663 194.941483,698.118896 158.826248,716.406921 
	C148.721008,721.523926 138.676437,726.762695 128.520248,731.775818 
	C125.658928,733.188110 123.950844,734.988647 124.037460,738.649658 
M194.022217,307.430328 
	C216.814835,323.567444 239.607437,339.704590 262.117767,355.641846 
	C264.604828,354.441833 265.240326,352.610657 266.331787,351.188080 
	C282.667358,329.897156 290.419830,305.103302 295.664795,279.282959 
	C301.541565,250.352295 292.776520,225.789169 271.871460,205.943771 
	C259.734589,194.422104 243.974823,189.115509 227.210983,188.465729 
	C213.965515,187.952316 201.326401,191.034470 188.928207,196.150055 
	C166.133133,205.555527 154.138733,223.493286 147.265076,245.923035 
	C145.036224,253.196060 145.735199,260.611023 145.973816,268.111816 
	C146.103821,272.198944 146.977356,274.304291 150.151169,276.502075 
	C164.663193,286.551361 179.016953,296.829163 194.022217,307.430328 
M668.731750,207.714890 
	C671.234802,211.075470 674.371033,213.817322 677.580078,216.441711 
	C682.080078,220.121918 686.048523,219.121429 688.035095,213.595032 
	C689.201538,210.350357 689.771179,206.849701 690.272156,203.415024 
	C691.822266,192.786362 690.955383,182.187668 687.837708,172.030212 
	C685.959290,165.910019 682.627747,160.157059 679.420288,154.541183 
	C674.083313,145.196945 667.282593,137.036545 657.747253,131.643097 
	C652.086731,128.441330 650.826721,129.185425 649.351440,135.442719 
	C647.313354,144.087265 648.630249,152.743607 649.859009,161.221466 
	C652.279907,177.925156 659.530762,192.883728 668.731750,207.714890 
M796.815125,262.343048 
	C797.886963,252.563492 792.230896,246.430969 785.017761,241.462662 
	C781.533325,239.062622 777.321838,238.147766 773.136414,240.088135 
	C769.365173,241.836426 765.747742,243.848709 762.321716,246.267273 
	C759.651001,248.152618 758.827576,250.472153 759.005249,253.527588 
	C759.561951,263.100769 768.223022,273.721527 778.281494,276.003113 
	C788.078064,278.225342 795.849304,274.741638 796.815125,262.343048 
z"/>
<path fill="url('#goldgradient')" opacity="1.000000" stroke="none" 
	d="
M469.421387,531.543640 
	C484.058105,515.021851 501.369659,503.031830 522.859009,499.035980 
	C544.000916,495.104706 564.986511,497.807251 584.888184,506.023682 
	C602.588745,513.331299 618.585083,523.311157 630.840515,538.578491 
	C638.391663,547.985413 642.753967,558.964600 646.922974,569.965210 
	C653.675781,587.783447 654.788513,606.490845 650.924622,624.898804 
	C647.788940,639.837769 641.952820,654.187927 633.647522,667.236633 
	C625.496277,680.043274 616.168091,691.952881 604.817444,702.907898 
	C609.627197,704.724915 613.719421,702.757507 617.833496,702.452515 
	C642.532532,700.621155 667.251587,697.468384 691.951660,701.848633 
	C700.431152,703.352356 708.877014,705.576965 716.194214,710.634155 
	C723.881042,715.946716 726.697449,724.304077 728.715332,732.577393 
	C730.175354,738.563599 723.462769,742.760010 717.228882,740.612854 
	C713.973816,739.491760 711.600708,737.172791 709.195129,734.833008 
	C704.625549,730.388611 699.601318,726.646912 692.941956,725.752563 
	C694.881653,726.730957 696.760864,727.863159 698.774231,728.653809 
	C702.326965,730.049072 702.834778,732.831421 702.234802,736.000488 
	C701.636047,739.163025 699.434692,740.755127 696.289062,741.146057 
	C692.919250,741.564880 689.673035,740.603943 686.367493,740.311646 
	C669.585815,738.828003 652.821777,739.563416 636.010498,740.029236 
	C617.560608,740.540527 599.070618,740.959839 580.586731,739.555847 
	C565.460754,738.406860 550.298157,739.880859 535.186890,740.686768 
	C524.846008,741.238159 514.546936,741.053162 504.229492,740.916260 
	C502.131165,740.888428 499.202393,740.592468 499.130402,737.962952 
	C499.027863,734.217712 500.280396,730.502502 504.524994,729.357300 
	C512.061279,727.323792 519.621460,725.319031 527.265442,723.763062 
	C534.052490,722.381592 540.472473,720.249390 546.210632,716.397034 
	C550.789795,713.322876 556.395935,711.821838 560.590881,708.587524 
	C585.043274,689.734741 606.436157,668.404236 614.201111,636.960632 
	C616.011719,629.628723 615.692871,622.096497 616.616272,614.682007 
	C618.478394,599.729370 613.160400,586.302002 607.386108,573.019043 
	C605.794128,569.356873 603.982971,565.787048 602.196106,562.212952 
	C593.478271,544.775574 578.149658,535.973145 560.706543,529.161804 
	C532.906555,518.306091 507.203247,522.871704 482.407990,537.672852 
	C479.406128,539.464844 476.432068,541.303589 473.423431,543.084045 
	C471.158234,544.424500 468.555145,545.248352 466.382019,543.549072 
	C464.066010,541.738037 465.570251,539.209961 466.396301,537.115723 
	C467.122498,535.274536 468.259552,533.595398 469.421387,531.543640 
z"/>
<path fill="url('#goldgradient')" opacity="1.000000" stroke="none" 
	d="
M948.702637,445.747040 
	C952.765320,445.899963 953.191345,443.060120 954.101624,440.542297 
	C956.180786,434.791565 960.530640,431.634735 966.422424,430.957306 
	C971.726196,430.347473 976.285950,432.345398 979.581909,436.620544 
	C983.852112,442.159454 983.307312,451.107178 978.566589,455.963745 
	C973.592407,461.059540 965.204346,462.048462 959.380554,457.476227 
	C956.132812,454.926331 953.248657,454.591034 949.376160,455.209534 
	C923.432739,459.352844 897.448181,463.239105 871.478455,467.217773 
	C870.678955,467.340302 869.894653,467.561829 868.333679,467.907684 
	C871.455261,474.130829 873.757507,480.324188 873.152039,487.130951 
	C873.078613,487.956360 873.203918,488.797913 873.157104,489.627472 
	C872.947327,493.349762 871.927856,496.968323 867.883911,497.751099 
	C863.932312,498.515991 860.942322,496.203217 859.040527,492.702209 
	C853.698425,482.868011 841.945923,477.136108 830.170837,478.971497 
	C834.983765,481.241394 839.519043,483.153748 843.837158,485.470673 
	C850.128662,488.846344 852.852600,494.558716 853.265442,501.456268 
	C853.477600,505.000366 852.512939,508.224365 848.879089,509.654602 
	C845.078369,511.150513 841.581360,510.360016 839.048035,507.024078 
	C830.825317,496.196320 811.102173,492.819305 798.788391,499.383942 
	C792.499756,502.736511 786.674377,506.994171 780.787292,511.056763 
	C767.221130,520.418701 752.972534,528.755127 739.699097,538.557678 
	C732.121826,544.153564 723.249329,546.425537 714.143677,547.847412 
	C703.285583,549.543030 692.357910,551.247131 681.386292,549.235168 
	C654.001709,544.213806 632.574219,530.811951 619.630066,505.281952 
	C615.499023,497.134247 610.430664,489.462891 605.820435,481.556519 
	C603.723694,477.960785 601.763306,474.313660 600.376221,470.345703 
	C599.199219,466.978821 600.055847,464.025177 601.787903,461.324280 
	C604.187988,457.581543 608.803589,457.754974 610.380554,461.853516 
	C614.980347,473.808624 623.677979,483.358826 629.241760,494.743652 
	C631.230347,498.812714 634.879456,501.826904 638.550049,504.375153 
	C651.159424,513.128784 664.842224,519.556946 680.387817,520.506042 
	C693.327637,521.296021 706.372498,522.119934 719.098938,518.408264 
	C728.021057,515.806091 736.820190,513.246826 744.375610,507.145599 
	C752.885986,500.273254 762.323425,494.533508 769.244873,485.259399 
	C763.853516,484.982666 758.829285,485.441345 753.851379,486.481476 
	C744.475342,488.440613 735.128662,487.263763 726.280884,484.539825 
	C713.130493,480.491333 706.858765,469.678467 702.896606,457.336578 
	C700.962891,451.313385 699.440186,445.105835 699.021179,438.827271 
	C698.134338,425.538788 690.911987,415.500092 683.070801,405.667206 
	C681.513611,403.714447 679.899048,401.805725 678.387207,399.818665 
	C675.743774,396.344177 676.045593,391.382172 679.176697,388.615204 
	C682.570557,385.615967 685.507996,387.369598 688.538696,389.572968 
	C701.665405,399.116150 709.870117,412.749756 718.621826,425.871643 
	C723.512207,433.203979 727.042236,441.231506 729.887451,449.683807 
	C732.173584,456.475037 738.556824,458.958801 745.414917,459.599823 
	C754.458923,460.445251 763.334839,459.295776 772.125732,457.171875 
	C774.341858,456.636444 775.985229,455.340118 777.632996,453.908569 
	C817.621582,419.166901 857.615295,384.431030 897.623291,349.711670 
	C911.839783,337.374359 926.067993,325.050110 940.359924,312.800476 
	C943.027588,310.514069 944.531250,308.475952 943.929260,304.407928 
	C942.613037,295.514587 948.758911,288.645172 957.084534,288.656219 
	C965.143127,288.666931 971.008728,295.543579 970.248718,304.089478 
	C969.469971,312.846130 962.519409,318.452454 954.028625,316.731781 
	C951.254395,316.169586 949.627930,317.180481 947.814575,318.752838 
	C926.423096,337.300323 905.004395,355.816498 883.610779,374.361481 
	C855.798523,398.470490 827.999695,422.595001 800.206116,446.725525 
	C798.618530,448.103790 797.130005,449.596161 794.933716,451.656128 
	C806.244568,451.644775 816.676636,451.594696 827.074402,452.654907 
	C836.204895,453.585907 845.352905,454.429047 853.716614,458.551819 
	C857.266541,460.301727 860.579224,459.148590 863.959290,458.638397 
	C892.076172,454.394653 920.182190,450.078491 948.702637,445.747040 
z"/>
<path fill="url('#goldgradient')" opacity="1.000000" stroke="none" 
	d="
M943.031616,566.263184 
	C923.083008,568.506226 903.588074,570.755676 884.084839,572.930908 
	C861.765991,575.420105 839.436462,577.813599 817.117676,580.303162 
	C791.495117,583.161316 765.880981,586.095337 740.259583,588.964233 
	C727.034912,590.445007 713.814758,591.987610 700.566833,593.227539 
	C695.895081,593.664795 692.488647,594.304382 693.053955,600.364075 
	C693.354065,603.580933 692.547729,607.009460 691.701538,610.199341 
	C690.413696,615.054443 692.024902,617.313477 696.799683,618.978027 
	C729.192993,630.270935 761.481750,641.863647 793.812439,653.336731 
	C835.245911,668.039978 876.691345,682.709473 918.115906,697.437805 
	C921.199829,698.534302 923.820618,699.084717 927.025330,697.077698 
	C932.904175,693.396057 939.500244,694.301880 944.095093,698.649231 
	C948.234619,702.565857 949.594910,709.112549 947.349304,714.311096 
	C945.007019,719.733276 938.939819,723.418030 933.311401,722.836548 
	C926.908081,722.174866 921.999756,717.943726 920.839539,711.106567 
	C920.272095,707.762207 918.055847,707.286621 915.782043,706.477051 
	C886.762939,696.144958 857.737732,685.829834 828.702209,675.544006 
	C783.970764,659.697754 739.230103,643.877502 694.494507,628.043030 
	C694.023926,627.876526 693.581177,627.547058 693.104370,627.497620 
	C691.305481,627.311218 689.256287,625.351196 687.805298,628.026062 
	C686.453552,630.517944 687.970337,631.976868 689.794128,633.453430 
	C700.024841,641.736084 710.184875,650.106018 720.402954,658.404419 
	C750.151794,682.564148 779.949890,706.663452 809.627563,730.910156 
	C812.836609,733.532043 815.475525,734.745117 819.846375,733.296021 
	C827.771118,730.668823 836.902039,736.502075 838.229370,744.258057 
	C839.891602,753.971008 834.120239,761.890259 824.716797,762.799438 
	C816.264160,763.616699 808.509766,756.823364 808.824402,748.076721 
	C808.998291,743.242126 807.038635,740.518738 803.541687,737.698059 
	C765.279724,706.835083 727.126831,675.836975 688.938293,644.882996 
	C687.414551,643.647949 686.087280,642.070923 683.953735,641.735840 
	C681.969666,643.043457 681.466797,645.257690 680.546387,647.156372 
	C670.175171,668.549377 654.047058,684.029236 632.549988,694.009460 
	C630.073547,695.159180 627.127625,696.361694 625.156250,693.915466 
	C623.270508,691.575439 625.001038,688.792236 626.318420,686.549805 
	C628.307007,683.164734 631.846741,681.297729 634.705566,678.772705 
	C647.074890,667.847473 653.605408,653.353699 660.201904,638.686890 
	C668.715027,619.758606 672.672119,599.807373 675.338257,579.477234 
	C675.766357,576.213074 675.219604,572.837036 677.206177,569.873413 
	C678.612244,567.775818 680.366577,566.513000 683.025085,566.789917 
	C685.607361,567.059021 686.643494,568.795227 687.358643,570.994324 
	C688.439453,574.317871 689.816833,577.557983 690.693665,580.930847 
	C691.485657,583.976929 693.164673,584.858521 696.132812,584.514954 
	C726.369568,581.015198 756.605957,577.510010 786.857422,574.140686 
	C813.144409,571.212891 839.460144,568.542725 865.745850,565.603577 
	C893.513367,562.498657 921.259583,559.203613 949.016846,556.006470 
	C955.460510,555.264343 961.897095,554.306396 968.363892,553.976257 
	C972.286316,553.776062 974.472290,552.483398 976.414795,548.878540 
	C980.278870,541.707458 989.313782,539.461060 996.423584,543.178284 
	C1003.339478,546.794128 1006.291382,555.183594 1003.217102,562.486023 
	C999.018860,572.458313 985.641113,574.901001 978.367065,566.696411 
	C975.819824,563.823303 973.376099,562.819702 969.754944,563.273926 
	C961.010925,564.370728 952.241089,565.262451 943.031616,566.263184 
z"/>
<path fill="url('#goldgradient')" opacity="1.000000" stroke="none" 
	d="
M735.199463,164.254852 
	C735.543396,168.536240 735.089417,171.907928 730.956665,173.826050 
	C725.753601,176.240875 720.560547,177.418427 715.184326,174.691422 
	C713.783875,173.981094 713.263794,172.260117 713.319214,170.782501 
	C713.705078,160.503220 707.406494,153.064850 702.545715,145.007797 
	C699.080750,139.264648 694.505981,134.408768 689.915649,129.611053 
	C685.501404,124.997475 683.837463,119.431992 683.332214,113.341927 
	C683.103638,110.586388 684.026306,108.066414 685.563477,105.833672 
	C687.637024,102.821922 691.521973,102.173477 693.564941,105.128769 
	C696.922729,109.985870 702.181763,112.371277 706.225037,116.232071 
	C720.102722,129.483383 731.864380,144.097412 735.199463,164.254852 
z"/>
</svg>