<svg version="1.1" id="Layer_1" xmlns="http://www.w3.org/2000/svg" xmlns:xlink="http://www.w3.org/1999/xlink" x="0px" y="0px" height="400px"
	 width="400px" viewBox="0 0 520 520" xml:space="preserve">
	<defs>
		<radialGradient id="goldgradient">
			<stop offset="15%" stop-color="#D2B379" />
			<stop offset="95%" stop-color="#A17A46" />
		</radialGradient>
  	</defs>

<path fill="url('#goldgradient')" opacity="1.000000" stroke="none" 
	d="
M467.244324,134.208878 
	C466.166473,130.625061 466.608887,127.794952 469.929810,126.258835 
	C472.466522,125.085457 474.864014,125.685173 476.710602,127.802635 
	C477.971161,129.248062 479.014648,131.358887 477.840027,132.849380 
	C473.051514,138.925720 476.065460,145.431732 476.718872,151.612900 
	C478.990112,173.098129 481.740540,194.532715 484.310425,215.986359 
	C485.986938,229.981567 487.666473,243.976425 489.390900,258.356995 
	C497.700531,257.018219 504.316284,253.187836 511.013977,249.607559 
	C512.968018,248.563004 512.641357,246.492355 512.652588,244.679810 
	C512.716614,234.348297 512.687317,224.015625 512.830139,213.685287 
	C513.042053,198.361786 513.361938,183.039734 513.659912,167.717529 
	C513.709106,165.184845 513.526550,162.917557 511.629272,160.805054 
	C509.002228,157.879944 509.144806,154.590714 512.271667,152.040359 
	C514.897705,149.898422 518.027710,149.884598 520.458618,152.267181 
	C523.272827,155.025406 523.067017,158.294144 520.429382,161.163528 
	C519.152283,162.552856 518.067993,163.794357 517.988464,165.840836 
	C516.991272,191.489502 517.410034,217.152359 517.175415,242.808273 
	C517.169800,243.419830 517.461121,244.034119 517.792847,245.364929 
	C524.810242,240.420670 531.345398,235.725922 534.702820,227.933044 
	C536.345764,224.119675 537.728455,220.173981 538.941528,216.200455 
	C540.684448,210.491638 541.038452,203.849686 550.278992,203.756653 
	C542.337769,193.539566 541.041992,182.662018 540.780701,171.616623 
	C540.464172,158.234695 542.873718,156.836548 554.568054,163.011917 
	C557.183899,164.393280 559.370728,166.655991 562.719177,166.980118 
	C562.719177,164.720795 562.512451,162.488892 562.777161,160.314377 
	C563.043030,158.130203 564.293274,155.965775 566.707214,157.849503 
	C573.559021,163.196335 580.110657,168.948792 582.846130,177.655838 
	C583.776794,180.618286 584.924011,183.820206 580.881104,186.707916 
	C587.635193,187.787598 593.727539,188.500916 599.454285,190.632919 
	C616.742859,197.069305 631.130005,206.729416 637.393372,225.258591 
	C638.262024,227.828384 639.793762,230.002762 641.360046,232.159729 
	C641.847473,232.831039 642.423462,233.442993 642.997131,234.045853 
	C645.308105,236.474777 646.134216,239.163956 644.258484,242.192520 
	C642.330017,245.306122 639.880432,242.660477 637.627686,242.544067 
	C639.374390,248.113922 633.559692,257.789490 626.845886,258.961426 
	C608.136536,262.227295 589.377747,264.496277 570.430420,259.850861 
	C560.304504,257.368256 554.148621,251.309280 551.057983,241.695709 
	C549.948792,238.245300 548.755493,234.798477 548.611145,229.599167 
	C544.178650,252.664703 528.609863,262.766815 509.593475,269.179138 
	C501.237244,271.996887 492.717377,274.284698 484.619873,277.888458 
	C462.756744,287.618591 447.700836,303.428802 442.147552,326.956360 
	C438.384491,342.899200 439.294159,359.123352 443.641937,374.890015 
	C447.412201,388.562317 456.544006,397.901642 469.603455,403.389008 
	C470.063385,403.582245 470.599976,403.646973 471.000336,403.919250 
	C473.281586,405.471100 477.990112,405.438049 476.857941,409.362732 
	C475.818634,412.965515 471.693604,411.898651 468.621246,411.858002 
	C454.397614,411.669739 441.010284,408.124298 428.302704,401.841339 
	C427.257782,401.324738 426.194672,400.832886 425.197113,400.234375 
	C415.988373,394.709900 415.992188,394.704010 408.290558,402.404144 
	C404.401733,406.292236 400.500732,410.168243 396.627655,414.071960 
	C394.539642,416.176605 392.354706,418.057068 392.038574,421.482239 
	C391.800629,424.060303 389.601471,425.394012 386.915985,425.181915 
	C384.433350,424.985779 382.929047,423.462341 382.667694,421.032166 
	C382.362030,418.190552 383.450653,416.091339 386.553986,415.674683 
	C387.933746,415.489410 389.142487,415.087585 390.123718,414.096008 
	C397.023987,407.122833 403.921539,400.146942 411.139832,392.848511 
	C406.812683,389.604919 402.779694,386.209869 399.380737,382.162323 
	C398.001129,380.519531 396.574890,380.935181 394.942169,381.764404 
	C376.973724,390.890656 358.993927,399.994659 340.993073,409.056732 
	C339.340302,409.888794 338.706604,411.221008 338.028839,412.814392 
	C336.521851,416.357147 333.492279,417.230194 330.153107,416.011963 
	C326.798920,414.788300 325.899109,411.820709 326.801849,408.602692 
	C327.766449,405.164124 330.487213,403.836823 333.820038,404.679932 
	C336.363190,405.323273 338.547913,405.429504 340.974945,404.187866 
	C357.733459,395.614258 374.549011,387.152191 391.338715,378.639404 
	C392.209137,378.198090 393.010437,377.620300 394.054596,376.976013 
	C390.822632,371.015900 387.650909,365.225433 384.542053,359.401428 
	C383.483582,357.418488 381.739685,357.260406 379.845245,357.364227 
	C365.717041,358.138489 351.587891,358.897308 337.462555,359.721802 
	C334.959717,359.867889 332.749390,360.597931 330.717224,362.435699 
	C328.296600,364.624908 325.347931,364.310150 323.139618,361.864441 
	C320.991913,359.485901 320.856110,356.614380 322.967468,354.149658 
	C325.102600,351.657227 327.939087,351.329102 330.553040,353.346893 
	C332.330109,354.718658 333.937439,355.829285 336.336578,355.660522 
	C350.447205,354.667694 364.564392,353.768280 378.678314,352.821625 
	C379.324738,352.778259 379.960938,352.582611 380.918854,352.396210 
	C381.059509,348.960693 379.805420,345.882904 378.813507,342.822906 
	C377.262512,338.038177 376.674469,333.079163 375.852814,328.170685 
	C375.473450,325.904297 374.811432,324.610016 372.362793,324.137817 
	C352.928528,320.390076 333.511505,316.552094 314.101410,312.680664 
	C312.205231,312.302460 310.971558,313.384857 309.481384,314.066864 
	C306.289856,315.527527 303.605377,314.839722 301.774536,311.752716 
	C300.159241,309.029053 300.793610,306.499451 303.121552,304.613861 
	C305.891602,302.370148 309.010986,302.632233 311.075623,305.377625 
	C312.890442,307.790833 315.062134,308.531769 317.765686,309.053253 
	C335.237915,312.423767 352.696075,315.868744 370.140289,319.381531 
	C373.735107,320.105408 375.832458,319.614258 375.994995,315.261841 
	C376.124176,311.802856 377.085632,308.377411 377.639771,304.931030 
	C378.127075,301.900360 376.975128,299.952881 374.054718,298.680359 
	C354.205383,290.031281 334.393616,281.295685 314.595642,272.529572 
	C312.733521,271.705048 311.223083,272.027985 309.393982,272.698303 
	C305.355255,274.178314 302.450653,272.387268 301.141510,268.544189 
	C299.877228,264.832855 301.450592,261.920502 305.025055,260.461517 
	C308.817291,258.913666 311.609680,260.656372 313.131226,264.092072 
	C314.120056,266.324982 315.130737,268.125458 317.507843,269.163635 
	C336.890503,277.628815 356.236603,286.177856 375.601227,294.684418 
	C376.339783,295.008820 377.154327,295.160187 378.363068,295.520111 
	C380.883026,288.335846 383.320862,281.333771 385.802612,274.347260 
	C386.414612,272.624420 387.030151,270.878510 387.882294,269.269379 
	C391.772247,261.924011 391.776764,261.977051 384.886902,257.131256 
	C363.629639,242.180542 342.384369,227.212753 321.164490,212.209091 
	C318.949799,210.643158 317.003662,209.527542 313.920837,210.034637 
	C310.306427,210.629150 308.036346,208.250198 307.604126,204.516190 
	C307.184692,200.892807 309.020142,198.631348 312.412537,198.084610 
	C315.977264,197.510086 318.613861,199.028732 319.296692,202.873718 
	C319.531891,204.198151 319.526917,205.601456 320.734406,206.458099 
	C326.940674,210.861084 333.172516,215.227936 339.897247,219.960541 
	C340.549011,185.565353 356.286041,163.350616 390.262146,154.656677 
	C385.793823,148.390060 384.699127,140.987793 377.224579,138.043976 
	C374.439270,136.947006 373.540375,134.253052 374.711639,131.317001 
	C375.761230,128.685883 377.820374,127.358284 380.648346,127.846840 
	C383.664215,128.367874 385.349823,130.298859 385.248047,133.432510 
	C384.984863,141.535385 391.387878,146.338577 394.795898,152.601532 
	C395.834595,154.510361 398.500122,153.709320 400.423309,153.472427 
	C430.983215,149.708008 465.151825,172.713470 470.405975,206.920517 
	C472.478821,220.415909 469.903900,233.135223 464.579895,245.292419 
	C459.155396,257.679077 451.859650,269.055542 443.474121,279.705048 
	C430.941101,295.621948 425.200775,314.161896 422.203857,333.886505 
	C420.768402,343.334076 419.715973,352.529724 422.193573,362.031708 
	C423.629669,367.539551 425.764008,372.345886 429.514648,376.517395 
	C430.789520,377.935333 431.929596,379.483612 430.673401,381.409973 
	C429.255890,383.583771 427.359741,383.185669 425.331207,381.998688 
	C428.084534,386.372406 432.187164,388.890594 437.376129,391.687073 
	C429.152313,374.207733 428.431976,356.227142 428.949310,338.381348 
	C429.406067,322.625671 433.149933,306.967285 442.950226,294.321289 
	C453.071442,281.261139 465.804504,270.533813 480.593140,262.726715 
	C483.954315,260.952301 485.127228,258.915436 484.686188,255.284943 
	C481.818481,231.679596 479.040710,208.063293 476.256226,184.447906 
	C474.698669,171.238205 473.121521,158.030212 471.690369,144.806595 
	C471.268799,140.911362 470.612549,137.253677 467.244324,134.208878 
M364.786835,237.678177 
	C374.394928,244.432526 384.003052,251.186890 393.897522,258.142548 
	C396.027832,254.898712 398.015503,252.568298 399.239227,249.888962 
	C404.721375,237.886032 410.181885,225.842163 405.993378,212.062820 
	C402.260925,199.783752 389.956573,190.714371 377.826965,191.449295 
	C362.132050,192.400223 350.039459,201.781052 347.594330,215.187332 
	C346.544312,220.944565 346.664246,226.305145 353.117554,229.586716 
	C357.086578,231.604996 360.526581,234.663589 364.786835,237.678177 
M408.264801,297.695465 
	C405.122284,308.629639 403.441467,319.792084 403.041260,331.154297 
	C402.455109,347.795563 410.444611,361.310425 418.747192,374.683167 
	C417.401398,370.673523 415.095215,367.052399 413.546539,363.132050 
	C406.860565,346.206848 402.440674,329.042358 406.600616,310.532959 
	C409.883820,295.924438 413.942719,281.558868 423.095001,269.631744 
	C437.888000,250.353653 445.186829,229.390808 441.713257,204.965225 
	C439.489685,189.329468 425.092010,173.489075 409.781464,170.911224 
	C415.803619,173.621063 422.299011,175.935593 426.087402,181.284836 
	C436.654724,196.206009 440.403839,213.010574 437.004913,231.018234 
	C434.969360,241.802490 432.495880,252.700546 426.269531,261.965088 
	C418.895203,272.937836 412.173920,284.134521 408.264801,297.695465 
M564.570923,186.140457 
	C563.014771,182.110672 561.371033,178.087967 558.671814,174.691025 
	C556.652527,172.149811 554.402710,168.144547 551.103882,169.174271 
	C547.618225,170.262329 549.236755,174.697754 549.370667,177.631134 
	C549.752930,186.001648 553.193665,193.322906 558.112549,199.962219 
	C559.165649,201.383713 560.606079,202.914398 562.682556,202.335388 
	C564.623047,201.794296 564.432312,199.793015 564.942505,198.247696 
	C566.206482,194.419495 565.249451,190.697464 564.570923,186.140457 
M603.157471,226.341171 
	C603.474609,226.239868 603.817383,226.185867 604.105042,226.030136 
	C607.859070,223.998001 608.994385,219.971634 606.821167,216.443909 
	C604.079102,211.992981 599.772583,211.048477 595.783936,214.023285 
	C592.507324,216.467072 592.702515,219.282333 596.377747,223.306503 
	C598.025879,225.111191 600.072632,226.085510 603.157471,226.341171 
M573.261780,179.901413 
	C572.818604,179.351318 572.842041,178.255997 571.325623,178.593597 
	C573.752869,183.212891 574.878601,188.186386 576.249329,193.118790 
	C575.999695,191.026230 576.707031,189.232986 577.761658,187.239014 
	C574.161682,186.280746 574.581848,182.960342 573.261780,179.901413 
z"/>
<path fill="url('#goldgradient')" opacity="1.000000" stroke="none" 
	d="
M489.756287,408.906799 
	C497.099548,405.805267 504.777588,404.864532 511.391968,400.617371 
	C531.776794,387.528137 543.828247,364.673798 529.374634,340.474030 
	C521.774353,327.748840 502.973083,322.364288 487.833740,328.757477 
	C485.086670,329.917480 482.533813,331.538727 479.896729,332.957184 
	C478.596985,333.656311 477.187958,334.897156 475.814484,333.634338 
	C474.176208,332.128052 475.401276,330.381683 476.395203,329.194885 
	C483.300568,320.949341 491.977997,315.341461 502.829926,314.898651 
	C517.074524,314.317444 529.899231,318.829102 539.835205,329.344940 
	C552.949768,343.225006 554.100342,365.838470 543.237488,383.140594 
	C540.233643,387.925079 536.849487,392.394440 532.025085,397.237640 
	C537.740295,396.873718 542.274231,396.711914 546.780579,396.270142 
	C554.806702,395.483368 562.734985,395.780762 570.536987,397.933136 
	C575.127808,399.199615 578.549133,401.765991 580.218933,406.464050 
	C580.973877,408.588104 581.961060,410.559448 579.756287,412.320801 
	C577.793945,413.888397 575.983643,412.886200 574.255615,411.783966 
	C573.421997,411.252197 572.668701,410.594574 571.477234,409.688324 
	C569.450623,414.016602 565.913147,413.172913 562.230957,412.770447 
	C555.605530,412.046234 548.954468,412.710480 542.304932,412.869598 
	C526.017029,413.259430 509.713501,412.441376 493.415894,413.188568 
	C491.103790,413.294586 487.709808,413.565582 489.756287,408.906799 
z"/>
<path fill="url('#goldgradient')" opacity="1.000000" stroke="none"
	d="
M531.145386,299.809814 
	C535.633057,301.675842 536.668396,306.122162 538.513794,309.546722 
	C545.350647,322.234406 556.986450,324.571655 569.500549,324.425629 
	C579.538330,324.308533 588.014282,319.810303 595.044495,311.915833 
	C592.408142,310.388733 589.915894,311.420502 587.599365,311.382599 
	C577.261719,311.213348 571.879944,307.506958 569.938538,297.382324 
	C568.463196,289.688446 566.424744,282.554016 560.990845,276.688232 
	C559.613403,275.201263 559.278381,273.368225 560.897522,271.773102 
	C562.709961,269.987457 564.300537,271.276245 565.714111,272.452728 
	C571.976868,277.664886 576.424988,284.321472 579.959717,291.514862 
	C584.376099,300.502258 593.797913,302.826324 601.730225,296.253906 
	C609.552185,289.772888 617.132446,283.000275 624.817688,276.354309 
	C637.163513,265.678040 649.509949,255.002411 661.852539,244.322449 
	C664.495850,242.035248 667.000122,239.877304 667.269470,235.815338 
	C667.459534,232.949966 669.761353,231.067642 672.904602,231.307709 
	C675.742554,231.524445 677.427612,233.400620 677.949341,236.096375 
	C678.529602,239.094482 677.245117,242.048218 674.471863,242.475601 
	C666.876709,243.646133 662.570068,249.441498 657.376770,253.831070 
	C641.609497,267.158142 626.123230,280.817688 610.536926,294.358643 
	C610.054260,294.777954 609.676086,295.317474 609.133545,295.931976 
	C624.689819,297.872864 639.984497,300.722412 655.393250,296.375702 
	C658.412964,295.523834 661.599792,295.126709 664.738220,294.871918 
	C667.915222,294.614014 670.345276,293.776062 672.155762,290.783875 
	C673.844177,287.993347 676.910339,287.676971 679.688660,289.149139 
	C682.193237,290.476196 683.767761,292.775757 682.875244,295.788086 
	C681.977417,298.818390 679.525879,301.229584 676.565247,300.197418 
	C666.414978,296.658691 656.973633,301.286835 647.220520,302.040833 
	C644.120789,302.280457 640.981506,302.560394 638.112244,303.869812 
	C638.503601,306.397278 638.952698,308.663300 639.176636,310.951355 
	C639.344849,312.670227 639.013733,314.403076 637.151611,315.113373 
	C635.269897,315.831055 633.933105,314.737946 632.930298,313.291077 
	C631.027466,310.545715 628.466125,308.915405 625.001099,308.544525 
	C627.897888,310.152710 630.456177,312.009277 631.013489,315.533936 
	C631.293945,317.307800 631.094727,318.941620 629.395874,319.880554 
	C627.948120,320.680695 626.497437,320.392151 625.245850,319.280487 
	C618.520264,313.306610 611.838684,314.047272 604.879517,319.054596 
	C599.477722,322.941345 593.734314,326.349426 588.222961,330.088531 
	C570.060974,342.410492 547.492737,337.223206 536.771606,318.227203 
	C534.562073,314.312286 532.201477,310.480194 530.077637,306.520294 
	C528.862854,304.255157 528.042603,301.815948 531.145386,299.809814 
z"/>
<path fill="url('#goldgradient')" opacity="1.000000" stroke="none" 
	d="
M570.901489,353.717957 
	C566.609680,354.328003 566.679626,357.425720 566.396606,360.212402 
	C566.097412,363.157898 568.520752,363.726501 570.499695,364.430939 
	C598.888184,374.536133 627.297852,384.581573 655.684082,394.692963 
	C657.670349,395.400513 659.398621,395.472382 661.424133,394.684143 
	C664.735291,393.395569 667.449097,394.648224 668.791565,397.860077 
	C670.047119,400.864044 669.044189,403.550171 666.113159,405.041504 
	C662.947693,406.652100 660.082825,405.751617 658.466736,402.657501 
	C657.378906,400.574829 656.043945,399.291229 653.866638,398.521973 
	C625.613159,388.540405 597.379089,378.503937 569.128967,368.512756 
	C567.918030,368.084442 566.599426,367.960632 565.285278,367.685455 
	C564.754456,369.668945 566.259583,370.164795 567.188232,370.918243 
	C581.936646,382.884827 596.728088,394.798584 611.451538,406.795807 
	C613.593262,408.540955 615.575928,409.651550 618.598572,409.429901 
	C622.405457,409.150665 625.002197,411.392517 625.158813,415.393066 
	C625.293396,418.832611 623.306213,421.191010 619.947571,421.709625 
	C615.982361,422.321869 613.592407,420.052460 612.856079,416.324615 
	C612.484741,414.444427 612.070496,412.856445 610.509094,411.598846 
	C595.328613,399.371765 580.179016,387.106354 565.007202,374.868408 
	C564.519775,374.475159 563.889404,374.258942 562.969604,373.771545 
	C557.656738,383.540619 550.996704,391.668915 539.842896,394.674164 
	C538.035645,392.081116 539.467407,390.677551 540.807983,389.514221 
	C552.679321,379.213196 556.426697,365.210419 558.706116,350.524841 
	C558.859253,349.538361 558.854980,348.523590 559.056091,347.549255 
	C559.424622,345.763397 559.637695,343.610077 561.742920,343.140015 
	C564.286865,342.571899 564.664978,344.962769 565.155884,346.589233 
	C565.949097,349.217285 567.621704,349.866608 570.090759,349.583282 
	C592.071594,347.061157 614.053589,344.549744 636.038452,342.062805 
	C648.930969,340.604431 661.822693,339.132935 674.730408,337.821289 
	C677.180542,337.572327 679.041992,337.044556 680.717834,335.000305 
	C683.214233,331.955109 686.529480,331.765991 689.553772,334.256042 
	C692.211365,336.444122 692.707458,339.452606 690.687683,342.289185 
	C688.444092,345.440216 685.154602,346.422333 682.015991,343.906189 
	C678.620972,341.184479 674.978760,342.124969 671.488281,342.511017 
	C640.407227,345.948883 609.345703,349.562775 578.275696,353.101196 
	C575.961792,353.364716 573.627136,353.445984 570.901489,353.717957 
z"/>
</svg>